<svg id="SvgjsSvg1001" width="288" height="288" xmlns="http://www.w3.org/2000/svg" version="1.1" xmlns:xlink="http://www.w3.org/1999/xlink" xmlns:svgjs="http://svgjs.com/svgjs"><defs id="SvgjsDefs1002"></defs><g id="SvgjsG1008" transform="matrix(0.9167,0,0,0.9167,11.995200000000011,11.995200000000011)"><svg xmlns="http://www.w3.org/2000/svg" enable-background="new 0 0 48 48" viewBox="0 0 48 48" width="288" height="288"><path d="M24,42c-9.9,0-18-8.1-18-18c0-9.9,8.1-18,18-18c9.9,0,18,8.1,18,18C42,33.9,33.9,42,24,42z M24,8C15.2,8,8,15.2,8,24    s7.2,16,16,16c8.8,0,16-7.2,16-16S32.8,8,24,8z" fill="#ffffff" class="color000 svgShape"></path><path d="M24 34c-.6 0-1-.4-1-1V22.6c0-.6.4-1 1-1s1 .4 1 1V33C25 33.6 24.6 34 24 34zM24 19.1c-.6 0-1-.4-1-1v-3.3c0-.6.4-1 1-1s1 .4 1 1v3.3C25 18.6 24.6 19.1 24 19.1z" fill="#ffffff" class="color000 svgShape"></path></svg></g></svg>