<svg id="SvgjsSvg1001" width="288" height="288" xmlns="http://www.w3.org/2000/svg" version="1.1" xmlns:xlink="http://www.w3.org/1999/xlink" xmlns:svgjs="http://svgjs.com/svgjs"><defs id="SvgjsDefs1002"></defs><g id="SvgjsG1008" transform="matrix(0.9167,0,0,0.9167,11.995200000000011,11.995200000000011)"><svg xmlns="http://www.w3.org/2000/svg" viewBox="0 0 64 64" width="288" height="288"><rect width="64" height="64" fill="none" data-name="Layer 3"></rect><g data-name="Design Convert" fill="#ffffff" class="color000 svgShape"><path fill="#ffffff" d="M32,50a19.11,19.11,0,0,1-13.41-5.43L7.89,34.1a2.92,2.92,0,0,1,0-4.2l10.7-10.46a19.27,19.27,0,0,1,26.82,0L56.11,29.9a2.92,2.92,0,0,1,0,4.2L45.41,44.56A19.11,19.11,0,0,1,32,50Zm0-34a17.12,17.12,0,0,0-12,4.86L9.28,31.33a.94.94,0,0,0,0,1.34L20,43.13a17.27,17.27,0,0,0,24,0L54.72,32.67a.94.94,0,0,0,0-1.34h0L44,20.87A17.12,17.12,0,0,0,32,16Z" class="color010101 svgShape"></path><path fill="#ffffff" d="M32,39a7,7,0,1,1,7-7A7,7,0,0,1,32,39Zm0-12a5,5,0,1,0,5,5A5,5,0,0,0,32,27Z" class="color010101 svgShape"></path></g></svg></g></svg>