<svg id="SvgjsSvg1014" width="288" height="288" xmlns="http://www.w3.org/2000/svg" version="1.1" xmlns:xlink="http://www.w3.org/1999/xlink" xmlns:svgjs="http://svgjs.com/svgjs"><defs id="SvgjsDefs1015"></defs><g id="SvgjsG1016"><svg xmlns="http://www.w3.org/2000/svg" viewBox="0 0 64 64" width="288" height="288"><rect width="64" height="64" fill="none" data-name="Layer 3"></rect><g data-name="Design Convert" fill="#ffffff" class="color000 svgShape"><path fill="#ffffff" d="M32 50a19.11 19.11 0 01-12.65-4.74 1 1 0 01-.09-1.41 1 1 0 011.41-.09A17.25 17.25 0 0044 43.13L54.72 32.67a.94.94 0 000-1.34L43.86 20.72a1 1 0 011.39-1.44l.16.16L56.11 29.9a2.92 2.92 0 010 4.2L45.41 44.56A19.11 19.11 0 0132 50zM16.37 42a1 1 0 01-.7-.29L7.89 34.1a2.92 2.92 0 010-4.2l10.7-10.46a19.29 19.29 0 0122.9-3 1 1 0 11-1 1.74A17.28 17.28 0 0020 20.87L9.28 31.33a.94.94 0 000 1.34l7.79 7.62a1 1 0 010 1.41A1 1 0 0116.37 42z" class="color010101 svgShape"></path><path fill="#ffffff" d="M32 39a7 7 0 01-4.67-1.78 1 1 0 111.34-1.49 5 5 0 007.06-7.06 1 1 0 111.49-1.34A7 7 0 0132 39zM26 33a1 1 0 01-1-1 7 7 0 017-7 1 1 0 010 2 5 5 0 00-5 5A1 1 0 0126 33z" class="color010101 svgShape"></path><path fill="#ffffff" d="M15,50a1,1,0,0,1-.71-.29,1,1,0,0,1,0-1.42l34-34a1,1,0,0,1,1.42,1.42l-34,34A1,1,0,0,1,15,50Z" class="color010101 svgShape"></path></g></svg></g></svg>